<svg width="24" height="24" viewBox="0 0 24 24" fill="none" xmlns="http://www.w3.org/2000/svg">
<g clip-path="url(#clip0_11_776)">
<path fill-rule="evenodd" clip-rule="evenodd" d="M0.156837 3.17196C0.268022 3.0621 0.41803 3.00049 0.574337 3.00049C0.730644 3.00049 0.880652 3.0621 0.991837 3.17196L9.82084 11.6C9.87721 11.6502 9.92232 11.7119 9.9532 11.7808C9.98409 11.8497 10.0001 11.9244 10.0001 12C10.0001 12.0755 9.98409 12.1502 9.9532 12.2191C9.92232 12.2881 9.87721 12.3497 9.82084 12.4L1.02084 20.828C0.909382 20.9372 0.759875 20.9988 0.603837 21C0.447714 20.9993 0.298055 20.9375 0.186837 20.828C0.130466 20.7777 0.085359 20.7161 0.0544738 20.6471C0.0235886 20.5782 0.00762258 20.5035 0.00762258 20.428C0.00762258 20.3524 0.0235886 20.2777 0.0544738 20.2088C0.085359 20.1399 0.130466 20.0782 0.186837 20.028L8.53784 11.999L0.154837 3.96996C0.0548966 3.8608 -0.000368609 3.71807 1.85048e-06 3.57007C0.00037231 3.42207 0.0563514 3.27962 0.156837 3.17096V3.17196ZM14.1568 3.17196C14.268 3.0621 14.418 3.00049 14.5743 3.00049C14.7306 3.00049 14.8807 3.0621 14.9918 3.17196L23.8208 11.6C23.8772 11.6502 23.9223 11.7119 23.9532 11.7808C23.9841 11.8497 24.0001 11.9244 24.0001 12C24.0001 12.0755 23.9841 12.1502 23.9532 12.2191C23.9223 12.2881 23.8772 12.3497 23.8208 12.4L15.0208 20.828C14.9094 20.9372 14.7599 20.9988 14.6038 21C14.4477 20.9993 14.2981 20.9375 14.1868 20.828C14.1305 20.7777 14.0854 20.7161 14.0545 20.6471C14.0236 20.5782 14.0076 20.5035 14.0076 20.428C14.0076 20.3524 14.0236 20.2777 14.0545 20.2088C14.0854 20.1399 14.1305 20.0782 14.1868 20.028L22.5378 11.999L14.1548 3.96996C14.0549 3.8608 13.9996 3.71807 14 3.57007C14.0004 3.42207 14.0564 3.27962 14.1568 3.17096V3.17196Z" fill="black"/>
</g>
<defs>
<clipPath id="clip0_11_776">
<rect width="24" height="24" fill="white"/>
</clipPath>
</defs>
</svg>
