<svg width="78" height="61" viewBox="0 0 78 61" fill="none" xmlns="http://www.w3.org/2000/svg">
<path fill-rule="evenodd" clip-rule="evenodd" d="M47.5056 47.8648L58.4921 20.999L48.624 48.296C48.5973 48.37 48.5562 48.438 48.5032 48.4961C48.4501 48.5543 48.3862 48.6014 48.3149 48.6348C48.2437 48.6682 48.1666 48.6873 48.088 48.6909C48.0094 48.6945 47.9308 48.6826 47.8568 48.6558C47.7828 48.6291 47.7148 48.588 47.6567 48.535C47.5985 48.4819 47.5514 48.418 47.518 48.3467C47.4846 48.2755 47.4656 48.1984 47.4619 48.1198C47.4583 48.0411 47.4703 47.9626 47.497 47.8886L47.5056 47.8648Z" fill="#010202"/>
<path d="M33.394 48.9342C33.394 48.9342 23.8019 46.5612 20.3837 42.668C16.9674 38.773 11.457 33.2664 11.932 9.99961C11.932 9.99961 15.5415 6.29681 34.7238 16.6475M48.2937 47.4465C47.7226 48.8714 49.5369 59.1898 49.5369 59.1898C49.5369 59.1898 42.1303 54.3476 38.4275 45.4209C34.7228 36.4942 36.1487 34.6904 36.4333 29.4674C36.717 24.2435 41.5259 16.0935 44.3625 13.3712C46.4062 11.4084 53.2482 6.25112 56.9625 3.48401C57.2787 3.24887 57.6396 3.08064 58.023 2.98959C58.4064 2.89855 58.8044 2.8866 59.1926 2.95448C59.5808 3.02236 59.9511 3.16863 60.2809 3.38439C60.6107 3.60014 60.8931 3.88084 61.1107 4.20934C65.4151 10.644 67.8767 18.2143 67.7158 25.955C67.6206 30.5459 66.6069 35.1749 63.617 38.2371C63.617 38.2371 56.5655 45.0411 50.8666 45.7055C45.1697 46.3699 48.9496 56.7701 48.9496 56.7701L48.2937 47.4465Z" stroke="#010202" stroke-width="0.5" stroke-linecap="round" stroke-linejoin="round"/>
<path fill-rule="evenodd" clip-rule="evenodd" d="M23.345 20.3224C24.7546 21.7194 26.1013 23.1785 27.381 24.6953C28.0225 25.454 28.7031 26.1926 29.2095 27.0655C29.674 27.9412 30.2223 28.8703 30.2071 29.9364C30.207 29.9459 30.2036 29.9552 30.1977 29.9626C30.1917 29.9701 30.1834 29.9753 30.1741 29.9775C30.1648 29.9797 30.155 29.9787 30.1463 29.9747C30.1377 29.9707 30.1306 29.9639 30.1262 29.9554L30.1233 29.9478C29.674 29.0711 29.081 28.3201 28.4956 27.5395C27.9159 26.759 27.4019 25.9233 26.8403 25.1151C25.686 23.5124 24.4994 21.9333 23.2812 20.3786C23.2777 20.3742 23.2751 20.3691 23.2735 20.3637C23.272 20.3583 23.2715 20.3526 23.2723 20.347C23.273 20.3414 23.2748 20.336 23.2777 20.3311C23.2805 20.3262 23.2843 20.322 23.2889 20.3186C23.297 20.3121 23.3073 20.309 23.3177 20.3097C23.3281 20.3104 23.3378 20.3149 23.345 20.3224Z" fill="#010202"/>
</svg>
