<svg width="25" height="24" viewBox="0 0 25 24" fill="none" xmlns="http://www.w3.org/2000/svg">
<path fill-rule="evenodd" clip-rule="evenodd" d="M21.5785 7.15653C21.6884 7.26772 21.75 7.41772 21.75 7.57403C21.75 7.73034 21.6884 7.88035 21.5785 7.99153L13.1505 16.8205C13.1002 16.8769 13.0386 16.922 12.9697 16.9529C12.9007 16.9838 12.8261 16.9997 12.7505 16.9997C12.675 16.9997 12.6003 16.9838 12.5314 16.9529C12.4624 16.922 12.4008 16.8769 12.3505 16.8205L3.92253 8.02053C3.81332 7.90908 3.75165 7.75957 3.75053 7.60353C3.75123 7.44741 3.81296 7.29775 3.92253 7.18653C3.97281 7.13016 4.03444 7.08505 4.10337 7.05417C4.17231 7.02328 4.24699 7.00732 4.32253 7.00732C4.39807 7.00732 4.47275 7.02328 4.54169 7.05417C4.61062 7.08505 4.67225 7.13016 4.72253 7.18653L12.7515 15.5375L20.7805 7.15453C20.8897 7.05459 21.0324 6.99933 21.1804 6.9997C21.3284 7.00007 21.4709 7.05605 21.5795 7.15653L21.5785 7.15653Z" fill="black"/>
</svg>
