<svg width="48" height="36" viewBox="0 0 48 36" fill="none" xmlns="http://www.w3.org/2000/svg">
<g clip-path="url(#clip0_126_5497)">
<mask id="mask0_126_5497" style="mask-type:alpha" maskUnits="userSpaceOnUse" x="0" y="8" width="43" height="27">
<path d="M0.790009 8.16113H42.509V34.4435H0.790009V8.16113Z" fill="white"/>
</mask>
<g mask="url(#mask0_126_5497)">
<path fill-rule="evenodd" clip-rule="evenodd" d="M0.825414 25.2901C2.18851 27.3412 3.86671 29.305 5.83523 30.8339C6.82067 31.6016 7.88991 32.2619 9.03998 32.734C10.1918 33.1842 11.431 33.4604 12.6548 33.6864C15.1149 34.1201 17.6481 34.1526 20.0994 33.6964C22.5553 33.2627 24.9032 32.3493 27.0966 31.1685C29.2846 29.963 31.3334 28.5055 33.1237 26.7647C34.9282 25.0387 36.4683 23.0501 37.8715 20.976C39.234 18.877 40.6231 16.751 41.5784 14.4597C41.7979 13.8837 42.0051 13.2942 42.07 12.7012C42.0989 12.4062 42.0953 12.1123 42.0228 11.8444C41.949 11.5706 41.7915 11.3753 41.5684 11.1233C41.2285 10.6719 40.6437 10.3627 40.1304 10.0228C39.5993 9.69471 39.0558 9.37961 38.5088 9.0763L38.5065 9.07571L38.4811 9.05978C37.881 8.66442 37.0566 8.51808 36.2907 8.53932C35.9083 8.55585 35.4929 8.58476 35.1501 8.69865C34.7892 8.82822 34.4512 9.01425 34.1487 9.24979C32.906 10.2087 31.937 11.5364 31.092 12.8759L31.0979 12.8641L26.7608 21.6481C25.0519 24.4758 22.5004 26.77 19.4874 28.0942C17.976 28.7476 16.3629 29.1349 14.7195 29.2389C13.0826 29.317 11.4419 29.2135 9.82775 28.9303C6.623 28.3503 3.46132 27.1353 0.825414 25.2913V25.2901ZM0.790009 25.2505C3.53358 27.044 6.61708 28.2532 9.8484 28.8029C11.4534 29.0713 13.0862 29.1616 14.7101 29.0702C16.3305 28.9559 17.9188 28.562 19.4048 27.9059C22.3611 26.5865 24.869 24.2757 26.5153 21.52L30.7982 12.7171L30.8047 12.7053C31.6662 11.3257 32.621 9.98621 33.9321 8.95888C34.2648 8.69692 34.6373 8.49011 35.0356 8.34637C35.461 8.20711 35.8605 8.18586 36.2807 8.16285C37.1121 8.14515 37.9618 8.25903 38.7212 8.74999L38.6947 8.73287C39.2512 9.03554 39.8003 9.35152 40.3416 9.68055C40.8686 10.0311 41.4486 10.3102 41.8882 10.8607C42.0835 11.0737 42.3379 11.3829 42.4252 11.7264C42.5202 12.0686 42.5214 12.4132 42.4919 12.7437C42.4211 13.4063 42.2086 14.0194 41.9862 14.6184C41.0143 16.9911 39.6406 19.119 38.2822 21.2492C36.8837 23.3546 35.3336 25.3874 33.4901 27.1435C31.6662 28.9179 29.5749 30.4067 27.3515 31.6329C22.9152 34.1313 17.5767 35.0489 12.5899 34.0405C11.3443 33.7914 10.1151 33.5011 8.92315 33.0178C7.7477 32.5163 6.66548 31.8259 5.67768 31.0316C3.71805 29.4104 2.06297 27.453 0.790009 25.2511" fill="#231F20"/>
</g>
<mask id="mask1_126_5497" style="mask-type:alpha" maskUnits="userSpaceOnUse" x="38" y="0" width="9" height="9">
<path d="M38.2852 0H46.9276V8.86899H38.2852V0Z" fill="white"/>
</mask>
<g mask="url(#mask1_126_5497)">
<path fill-rule="evenodd" clip-rule="evenodd" d="M38.2911 8.82598C39.0505 7.84349 39.8099 6.87693 40.4614 5.84428C41.1365 4.84173 41.6622 3.73591 42.2889 2.64838C42.5969 2.10668 42.9085 1.56616 43.2814 1.05397C43.4679 0.799051 43.665 0.547674 43.9175 0.329933C44.1618 0.0938986 44.5454 -0.0229383 44.867 0.0024354C45.5397 0.020138 46.1522 0.427297 46.4779 0.976077C46.803 1.53194 46.9157 2.16923 46.9276 2.78764C46.9278 2.79115 46.9273 2.79466 46.9262 2.79798C46.925 2.8013 46.9232 2.80435 46.9208 2.80694C46.9184 2.80953 46.9156 2.81162 46.9124 2.81307C46.9092 2.81452 46.9057 2.8153 46.9022 2.81537C46.8954 2.81539 46.8889 2.81283 46.884 2.80823C46.8791 2.80363 46.8761 2.79732 46.8756 2.79059C46.8284 2.17867 46.6779 1.5638 46.3445 1.06341C46.0111 0.568918 45.4429 0.249091 44.8646 0.267974C44.2604 0.224308 43.9099 0.760105 43.5635 1.25165C43.2289 1.75617 42.9439 2.302 42.663 2.84901C42.1042 3.93063 41.6675 5.12674 40.8998 6.14523C40.1481 7.15073 39.3107 8.08897 38.3282 8.86434C38.3254 8.8664 38.3222 8.86788 38.3188 8.8687C38.3154 8.86952 38.3119 8.86966 38.3084 8.86911C38.305 8.86857 38.3017 8.86734 38.2987 8.86551C38.2957 8.86368 38.2931 8.86127 38.2911 8.85844C38.2828 8.849 38.284 8.83543 38.2911 8.82598Z" fill="#231F20"/>
</g>
<path fill-rule="evenodd" clip-rule="evenodd" d="M41.2828 10.6105C41.2922 9.68113 41.4291 8.77181 41.5654 7.86249C41.7159 6.95553 41.9691 6.06863 42.2098 5.18173C42.4448 4.29193 42.7095 3.41024 43.0035 2.53814C43.1569 2.10384 43.3221 1.67131 43.5174 1.25176C43.7311 0.85876 43.8969 0.362498 44.3648 0.16836C44.379 0.16423 44.3937 0.16954 44.399 0.183112C44.4032 0.194914 44.399 0.209666 44.3861 0.214977L44.3743 0.221468C43.9848 0.415016 43.8349 0.914819 43.6638 1.31431C43.5045 1.73917 43.3747 2.17701 43.2566 2.61781C43.0159 3.49801 42.8045 4.38599 42.6229 5.28027C42.4382 6.17602 42.3036 7.08062 42.0859 7.9687C41.8552 8.85442 41.6451 9.74486 41.3347 10.6188C41.3337 10.6222 41.3319 10.6253 41.3296 10.6281C41.3273 10.6308 41.3245 10.633 41.3213 10.6346C41.3181 10.6362 41.3146 10.6371 41.311 10.6374C41.3074 10.6376 41.3039 10.6371 41.3005 10.6359C41.2899 10.6329 41.2828 10.6211 41.2828 10.6105ZM30.0995 19.6683C30.738 17.8638 31.5027 16.1024 32.428 14.413C32.8971 13.5727 33.3804 12.7254 34.036 11.9919C34.6986 11.308 35.5189 10.5657 36.5373 10.5273C36.5521 10.5261 36.5639 10.5379 36.5651 10.5527C36.5651 10.5645 36.555 10.5751 36.5444 10.5792C35.6493 10.9109 35.022 11.616 34.4396 12.3365C33.8713 13.0741 33.3066 13.8288 32.795 14.6284C31.8037 16.2441 30.9268 17.9447 30.1485 19.6872C30.1473 19.6905 30.1455 19.6935 30.1431 19.6961C30.1407 19.6987 30.1379 19.7008 30.1347 19.7022C30.1315 19.7036 30.128 19.7044 30.1245 19.7045C30.121 19.7045 30.1175 19.7039 30.1143 19.7026C30.108 19.6997 30.103 19.6946 30.1003 19.6883C30.0976 19.682 30.0973 19.6748 30.0995 19.6683Z" fill="#231F20"/>
</g>
<defs>
<clipPath id="clip0_126_5497">
<rect width="46.42" height="35.9755" fill="white" transform="translate(0.790009)"/>
</clipPath>
</defs>
</svg>
