<svg width="216" height="41" viewBox="0 0 216 41" fill="none" xmlns="http://www.w3.org/2000/svg">
<path d="M20 0.822266L24.4903 14.6419H39.0211L27.2654 23.1829L31.7557 37.0026L20 28.4616L8.2443 37.0026L12.7346 23.1829L0.97887 14.6419H15.5097L20 0.822266Z" fill="#DE9200"/>
<path d="M64 0.822266L68.4903 14.6419H83.0211L71.2654 23.1829L75.7557 37.0026L64 28.4616L52.2443 37.0026L56.7346 23.1829L44.9789 14.6419H59.5097L64 0.822266Z" fill="#DE9200"/>
<path d="M108 0.822266L112.49 14.6419H127.021L115.265 23.1829L119.756 37.0026L108 28.4616L96.2443 37.0026L100.735 23.1829L88.9789 14.6419H103.51L108 0.822266Z" fill="#DE9200"/>
<path d="M152 2.4403L156.015 14.7964L156.127 15.1419H156.49H169.482L158.972 22.7784L158.678 22.992L158.79 23.3375L162.805 35.6936L152.294 28.0571L152 27.8436L151.706 28.0571L141.195 35.6936L145.21 23.3375L145.322 22.992L145.028 22.7784L134.518 15.1419H147.51H147.873L147.985 14.7964L152 2.4403Z" stroke="#DE9200"/>
<path d="M196 2.4403L200.015 14.7964L200.127 15.1419H200.49H213.482L202.972 22.7784L202.678 22.992L202.79 23.3375L206.805 35.6936L196.294 28.0571L196 27.8436L195.706 28.0571L185.195 35.6936L189.21 23.3375L189.322 22.992L189.028 22.7784L178.518 15.1419H191.51H191.873L191.985 14.7964L196 2.4403Z" stroke="#DE9200"/>
</svg>
