<svg width="78" height="61" viewBox="0 0 78 61" fill="none" xmlns="http://www.w3.org/2000/svg">
<path fill-rule="evenodd" clip-rule="evenodd" d="M44.8132 43.4208L32.1038 25.9434L45.568 42.8504C45.7228 43.0425 45.6816 43.3303 45.4754 43.4925C45.2701 43.6539 44.9789 43.6283 44.825 43.437C44.8205 43.432 44.8166 43.4265 44.8132 43.4208Z" fill="#010202"/>
<path d="M44.8973 42.7293C45.6008 43.6276 46.2488 51.5158 46.2488 51.5158C46.2488 51.5158 50.8603 46.3003 51.9004 38.9867C52.9388 31.6731 51.5217 30.6954 50.2914 26.981C49.0611 23.2666 43.8707 18.478 41.2148 17.163C39.2996 16.2152 33.1666 14.0599 29.8443 12.9149C28.6477 12.505 27.2987 13.1813 26.8738 14.3972C24.9012 20.0483 24.5268 26.093 26.1534 31.6578C27.1186 34.9572 28.7781 38.0739 31.6165 39.6007C31.6165 39.6007 38.2275 42.8967 42.6294 42.0633C47.0297 41.2299 46.2202 49.6287 46.2202 49.6287" stroke="#010202" stroke-width="0.5" stroke-linecap="round" stroke-linejoin="round"/>
<path fill-rule="evenodd" clip-rule="evenodd" d="M39.9257 58.7743L36.5478 59.3652L33.4073 57.9717L29.989 57.7249L27.2684 55.609L24.0067 54.539L21.8651 51.8237L18.9509 49.9938L17.5111 46.8378L15.1128 44.353L14.4597 40.9374L12.7178 37.9428L12.8886 34.4692L11.9032 31.1382L12.8878 27.8072L12.7178 24.3335L14.4597 21.3381L15.1128 17.9242L17.5111 15.4394L18.9501 12.2826L21.8651 10.4518L24.0067 7.73647L27.2684 6.6674L29.989 4.55146L33.4073 4.30468L36.5478 2.91113L39.9257 3.50202L43.3035 2.91113L46.444 4.30468L49.8623 4.55146L52.5829 6.6674L55.8446 7.73732L57.9862 10.4527L60.9004 12.2826L62.3402 15.4386L64.7386 17.9234L65.3916 21.3389L67.1335 24.3335L66.9627 27.8072L67.9481 31.1382L66.9635 34.4692L67.1335 37.9428L65.3916 40.9383L64.7386 44.3521L62.3402 46.8369L60.9012 49.9938L57.9862 51.8245L55.8446 54.5399L52.5829 55.609L49.8623 57.7249L46.444 57.9717L43.3035 59.3652L39.9257 58.7743Z" stroke="black" stroke-width="0.5"/>
</svg>
