<svg width="21" height="24" viewBox="0 0 21 24" fill="none" xmlns="http://www.w3.org/2000/svg">
<path d="M5.29622 9.6305V7.4505C5.29622 6.07124 5.84413 4.74847 6.81941 3.77319C7.79469 2.79791 9.11746 2.25 10.4967 2.25C11.876 2.25 13.1987 2.79791 14.174 3.77319C15.1493 4.74847 15.6972 6.07124 15.6972 7.4505V9.6305M3.58622 9.6305H17.4162C17.668 9.63076 17.9094 9.73097 18.0873 9.9091C18.2653 10.0872 18.3652 10.3287 18.3652 10.5805V20.8005C18.3652 21.0524 18.2652 21.2939 18.0871 21.4721C17.9091 21.6502 17.6676 21.7504 17.4157 21.7505H3.58672C3.33476 21.7505 3.09313 21.6504 2.91497 21.4723C2.73681 21.2941 2.63672 21.0525 2.63672 20.8005V10.5805C2.63672 10.3285 2.73681 10.0869 2.91497 9.90875C3.09313 9.73059 3.33476 9.6305 3.58672 9.6305H3.58622Z" stroke="white" stroke-linecap="round" stroke-linejoin="round"/>
<path d="M10.4955 17.7069C11.6095 17.7069 12.5125 16.8038 12.5125 15.6899C12.5125 14.5759 11.6095 13.6729 10.4955 13.6729C9.38156 13.6729 8.47852 14.5759 8.47852 15.6899C8.47852 16.8038 9.38156 17.7069 10.4955 17.7069Z" stroke="white" stroke-linecap="round" stroke-linejoin="round"/>
</svg>
